<svg version="1.1" xmlns="http://www.w3.org/2000/svg" xmlns:xlink="http://www.w3.org/1999/xlink" viewBox="0 0 48 48" width="300" height="300" xml:space="preserve">
 <style type="text/css">
  .st0{fill:#FFD02F;}
	.st1{fill-rule:evenodd;clip-rule:evenodd;fill:#050038;}
 </style>
 <g>
  <path class="st0" d="M10.4,0h27.2C43.3,0,48,4.7,48,10.4v27.2C48,43.3,43.3,48,37.6,48H10.4C4.7,48,0,43.3,0,37.6V10.4
		C0,4.7,4.7,0,10.4,0z">
  </path>
  <path class="st1" d="M33.3,6h-5.3l4.4,7.7L22.8,6h-5.3l4.8,9.4L12.3,6H7l5.3,12L7,42h5.3l10.1-25.7L17.5,42h5.3l9.7-27.4L28.1,42
		h5.3L43,12L33.3,6z">
  </path>
 </g>
</svg>