<svg width="442" height="445" viewBox="0 0 442 445" fill="none" xmlns="http://www.w3.org/2000/svg">
<path d="M220.86 445C342.838 445 441.72 345.383 441.72 222.5C441.72 99.6166 342.838 0 220.86 0C98.8825 0 0 99.6166 0 222.5C0 345.383 98.8825 445 220.86 445Z" fill="black"/>
<path d="M388.708 178.196L387.278 171.451L330.975 161.517L363.752 116.784L359.979 112.4L311.801 135.793L317.888 73.7988L312.958 70.8861L283.65 121.169L250.842 46.3274H245.06L252.881 118.532L170.161 51.5703L163.192 53.6245L226.769 134.628L100.802 92.2255L94.989 98.6641L207.595 163.571L52.3205 176.725L50.5857 186.382L211.947 204.196L77.2764 317.086L83.0893 324.966L243.294 236.665L211.673 392.234H221.26L282.767 245.74L320.232 360.348L326.897 355.074L311.527 238.719L369.839 305.681L373.613 299.518L328.936 216.491L391.326 239.884L391.904 232.863L335.905 191.043L388.708 178.196Z" fill="white"/>
</svg>
